<svg width="48" height="48" viewBox="0 0 48 48" fill="none" xmlns="http://www.w3.org/2000/svg">
<path d="M29.8625 3.78694L28.671 6.38391C28.4932 6.77143 28.2079 7.09978 27.849 7.32997C27.4901 7.56016 27.0727 7.68253 26.6464 7.68253H6.23794C5.00775 7.68253 4.01044 8.67984 4.01044 9.91003V33.2723C4.01044 34.5024 5.00775 35.4998 6.23794 35.4998H43.7003C44.9305 35.4998 45.9278 34.5024 45.9278 33.2723V4.71581C45.9278 3.48562 44.9305 2.48831 43.7003 2.48831H31.8871C31.4607 2.48832 31.0433 2.61068 30.6844 2.84087C30.3256 3.07107 30.0403 3.39942 29.8625 3.78694Z" fill="#948E8C"/>
<path d="M43.9029 36.9992V18.8601C43.9029 17.6299 42.9056 16.6326 41.6754 16.6326H21.2669C20.8405 16.6326 20.4231 16.5102 20.0643 16.28C19.7054 16.0498 19.4201 15.7215 19.2423 15.3339L18.0508 12.737C17.873 12.3494 17.5877 12.0211 17.2288 11.7909C16.87 11.5607 16.4526 11.4383 16.0262 11.4383H4.21303C2.98285 11.4383 1.98553 12.4357 1.98553 13.6658V41.2841C1.98553 42.5143 2.98285 43.5116 4.21303 43.5116H41.6754C41.8053 43.5116 41.9324 43.4999 42.0562 43.4785C42.2098 43.4998 42.3665 43.5116 42.526 43.5116C44.4048 43.5116 45.9277 41.9887 45.9277 40.1099C45.9277 38.7213 45.0954 37.5278 43.9029 36.9992Z" fill="#566885"/>
<path d="M43.903 29.7506V39.7227H43.907C43.907 40.2807 44.3593 40.7331 44.9173 40.7331C45.4753 40.7331 45.9277 40.2807 45.9277 39.7227V29.7506H43.903Z" fill="#948E8C"/>
</svg>
